<svg xmlns="http://www.w3.org/2000/svg" width="32" height="29" viewBox="0 0 32 29">
  <defs>
    <style>
      .cls-1 {
        fill: #222;
        fill-rule: evenodd;
      }
    </style>
  </defs>
  <path id="Forma_1" data-name="Forma 1" class="cls-1" d="M2206.18,1066.36h3.4l4.83,17.46a1.188,1.188,0,0,0,1.14.87h14.86a1.181,1.181,0,0,0,1.08-.71l5.41-12.42a1.183,1.183,0,0,0-1.09-1.65H2219.4a1.18,1.18,0,0,0,0,2.36H2234l-4.38,10.05h-13.18l-4.83-17.45a1.18,1.18,0,0,0-1.15-.87h-4.28A1.18,1.18,0,0,0,2206.18,1066.36Zm8.25,26.64a2.68,2.68,0,1,0-2.68-2.68A2.68,2.68,0,0,0,2214.43,1093Zm16.77,0h0.19a2.639,2.639,0,0,0,1.84-.93A2.677,2.677,0,1,0,2231.2,1093Z" transform="translate(-2205 -1064)"/>
</svg>
